<mxfile host="app.diagrams.net" modified="2022-10-25T11:35:04.128Z" agent="5.0 (Windows NT 10.0; Win64; x64) AppleWebKit/537.36 (KHTML, like Gecko) Chrome/106.0.0.0 Safari/537.36" etag="FN_6iLfYJpauV2lzdS1h" version="20.4.1" type="github">
  <diagram id="wkD5zxwzYqrHjWKcorP6" name="第 1 页">
    <mxGraphModel dx="1422" dy="754" grid="1" gridSize="10" guides="1" tooltips="1" connect="1" arrows="1" fold="1" page="1" pageScale="1" pageWidth="1920" pageHeight="1200" math="0" shadow="0">
      <root>
        <mxCell id="0" />
        <mxCell id="1" parent="0" />
        <mxCell id="CRywQd7Vj3IOX5ZlnS8A-1" value="微信粉丝表" style="rounded=1;whiteSpace=wrap;html=1;" vertex="1" parent="1">
          <mxGeometry x="250" y="150" width="120" height="60" as="geometry" />
        </mxCell>
        <mxCell id="CRywQd7Vj3IOX5ZlnS8A-2" value="会员表" style="rounded=1;whiteSpace=wrap;html=1;" vertex="1" parent="1">
          <mxGeometry x="780" y="150" width="120" height="60" as="geometry" />
        </mxCell>
        <mxCell id="CRywQd7Vj3IOX5ZlnS8A-3" value="微信粉丝与会员关联表" style="rounded=1;whiteSpace=wrap;html=1;" vertex="1" parent="1">
          <mxGeometry x="510" y="150" width="140" height="60" as="geometry" />
        </mxCell>
        <mxCell id="CRywQd7Vj3IOX5ZlnS8A-5" value="" style="endArrow=none;html=1;rounded=0;entryX=0;entryY=0.5;entryDx=0;entryDy=0;exitX=1;exitY=0.5;exitDx=0;exitDy=0;" edge="1" parent="1" source="CRywQd7Vj3IOX5ZlnS8A-3" target="CRywQd7Vj3IOX5ZlnS8A-2">
          <mxGeometry width="50" height="50" relative="1" as="geometry">
            <mxPoint x="700" y="410" as="sourcePoint" />
            <mxPoint x="750" y="360" as="targetPoint" />
          </mxGeometry>
        </mxCell>
        <mxCell id="CRywQd7Vj3IOX5ZlnS8A-6" value="1" style="text;html=1;align=center;verticalAlign=middle;resizable=0;points=[];autosize=1;strokeColor=none;fillColor=none;" vertex="1" parent="1">
          <mxGeometry x="650" y="150" width="30" height="30" as="geometry" />
        </mxCell>
        <mxCell id="CRywQd7Vj3IOX5ZlnS8A-7" value="1" style="text;html=1;align=center;verticalAlign=middle;resizable=0;points=[];autosize=1;strokeColor=none;fillColor=none;" vertex="1" parent="1">
          <mxGeometry x="740" y="150" width="30" height="30" as="geometry" />
        </mxCell>
        <mxCell id="CRywQd7Vj3IOX5ZlnS8A-8" value="" style="endArrow=none;html=1;rounded=0;entryX=0;entryY=0.5;entryDx=0;entryDy=0;exitX=1;exitY=0.5;exitDx=0;exitDy=0;" edge="1" parent="1" source="CRywQd7Vj3IOX5ZlnS8A-1" target="CRywQd7Vj3IOX5ZlnS8A-3">
          <mxGeometry width="50" height="50" relative="1" as="geometry">
            <mxPoint x="700" y="410" as="sourcePoint" />
            <mxPoint x="750" y="360" as="targetPoint" />
          </mxGeometry>
        </mxCell>
        <mxCell id="CRywQd7Vj3IOX5ZlnS8A-9" value="1" style="text;html=1;align=center;verticalAlign=middle;resizable=0;points=[];autosize=1;strokeColor=none;fillColor=none;" vertex="1" parent="1">
          <mxGeometry x="375" y="155" width="30" height="30" as="geometry" />
        </mxCell>
        <mxCell id="CRywQd7Vj3IOX5ZlnS8A-11" value="N" style="text;html=1;align=center;verticalAlign=middle;resizable=0;points=[];autosize=1;strokeColor=none;fillColor=none;" vertex="1" parent="1">
          <mxGeometry x="470" y="155" width="30" height="30" as="geometry" />
        </mxCell>
        <mxCell id="CRywQd7Vj3IOX5ZlnS8A-12" value="积分账户" style="rounded=1;whiteSpace=wrap;html=1;" vertex="1" parent="1">
          <mxGeometry x="783" y="340" width="120" height="60" as="geometry" />
        </mxCell>
        <mxCell id="CRywQd7Vj3IOX5ZlnS8A-13" value="不是主键，根据openid关联" style="text;html=1;align=center;verticalAlign=middle;resizable=0;points=[];autosize=1;strokeColor=#b85450;fillColor=#f8cecc;" vertex="1" parent="1">
          <mxGeometry x="360" y="110" width="170" height="30" as="geometry" />
        </mxCell>
        <mxCell id="CRywQd7Vj3IOX5ZlnS8A-14" value="" style="endArrow=none;html=1;rounded=0;entryX=0.5;entryY=1;entryDx=0;entryDy=0;" edge="1" parent="1" source="CRywQd7Vj3IOX5ZlnS8A-12" target="CRywQd7Vj3IOX5ZlnS8A-2">
          <mxGeometry width="50" height="50" relative="1" as="geometry">
            <mxPoint x="700" y="410" as="sourcePoint" />
            <mxPoint x="750" y="360" as="targetPoint" />
          </mxGeometry>
        </mxCell>
        <mxCell id="CRywQd7Vj3IOX5ZlnS8A-15" value="1" style="text;html=1;align=center;verticalAlign=middle;resizable=0;points=[];autosize=1;strokeColor=none;fillColor=none;" vertex="1" parent="1">
          <mxGeometry x="845" y="220" width="30" height="30" as="geometry" />
        </mxCell>
        <mxCell id="CRywQd7Vj3IOX5ZlnS8A-16" value="1" style="text;html=1;align=center;verticalAlign=middle;resizable=0;points=[];autosize=1;strokeColor=none;fillColor=none;" vertex="1" parent="1">
          <mxGeometry x="845" y="310" width="30" height="30" as="geometry" />
        </mxCell>
        <mxCell id="CRywQd7Vj3IOX5ZlnS8A-17" value="等级表" style="rounded=1;whiteSpace=wrap;html=1;" vertex="1" parent="1">
          <mxGeometry x="510" y="280" width="120" height="60" as="geometry" />
        </mxCell>
        <mxCell id="CRywQd7Vj3IOX5ZlnS8A-18" value="" style="endArrow=none;html=1;rounded=0;entryX=0;entryY=1;entryDx=0;entryDy=0;exitX=1;exitY=0.25;exitDx=0;exitDy=0;" edge="1" parent="1" source="CRywQd7Vj3IOX5ZlnS8A-17" target="CRywQd7Vj3IOX5ZlnS8A-2">
          <mxGeometry width="50" height="50" relative="1" as="geometry">
            <mxPoint x="700" y="410" as="sourcePoint" />
            <mxPoint x="750" y="360" as="targetPoint" />
          </mxGeometry>
        </mxCell>
        <mxCell id="CRywQd7Vj3IOX5ZlnS8A-19" value="N" style="text;html=1;align=center;verticalAlign=middle;resizable=0;points=[];autosize=1;strokeColor=none;fillColor=none;" vertex="1" parent="1">
          <mxGeometry x="740" y="190" width="30" height="30" as="geometry" />
        </mxCell>
        <mxCell id="CRywQd7Vj3IOX5ZlnS8A-20" value="1" style="text;html=1;align=center;verticalAlign=middle;resizable=0;points=[];autosize=1;strokeColor=none;fillColor=none;" vertex="1" parent="1">
          <mxGeometry x="625" y="255" width="30" height="30" as="geometry" />
        </mxCell>
        <mxCell id="CRywQd7Vj3IOX5ZlnS8A-21" value="标签表" style="rounded=1;whiteSpace=wrap;html=1;" vertex="1" parent="1">
          <mxGeometry x="1010" y="280" width="120" height="60" as="geometry" />
        </mxCell>
        <mxCell id="CRywQd7Vj3IOX5ZlnS8A-22" value="" style="endArrow=none;html=1;rounded=0;entryX=1;entryY=1;entryDx=0;entryDy=0;exitX=0;exitY=0.15;exitDx=0;exitDy=0;exitPerimeter=0;" edge="1" parent="1" source="CRywQd7Vj3IOX5ZlnS8A-21" target="CRywQd7Vj3IOX5ZlnS8A-2">
          <mxGeometry width="50" height="50" relative="1" as="geometry">
            <mxPoint x="700" y="410" as="sourcePoint" />
            <mxPoint x="750" y="360" as="targetPoint" />
          </mxGeometry>
        </mxCell>
        <mxCell id="CRywQd7Vj3IOX5ZlnS8A-23" value="1" style="text;html=1;align=center;verticalAlign=middle;resizable=0;points=[];autosize=1;strokeColor=none;fillColor=none;" vertex="1" parent="1">
          <mxGeometry x="905" y="195" width="30" height="30" as="geometry" />
        </mxCell>
        <mxCell id="CRywQd7Vj3IOX5ZlnS8A-24" value="1" style="text;html=1;align=center;verticalAlign=middle;resizable=0;points=[];autosize=1;strokeColor=none;fillColor=none;" vertex="1" parent="1">
          <mxGeometry x="985" y="245" width="30" height="30" as="geometry" />
        </mxCell>
      </root>
    </mxGraphModel>
  </diagram>
</mxfile>
